<?xml version="1.0" encoding="UTF-8"?>
<svg width="19px" height="17px" viewBox="0 0 19 17" version="1.1" xmlns="http://www.w3.org/2000/svg" xmlns:xlink="http://www.w3.org/1999/xlink">
    <!-- Generator: Sketch 57 (83077) - https://sketch.com -->
    <title>重大危险源备份 2</title>
    <desc>Created with Sketch.</desc>
    <g id="页面-1" stroke="none" stroke-width="1" fill="none" fill-rule="evenodd">
        <g id="首页05备份" transform="translate(-74.000000, -580.000000)" fill-rule="nonzero">
            <g id="重大危险源备份-2" transform="translate(75.000000, 581.000000)">
                <path d="M16.480487,11.3096755 L13.6060726,6.32100785 L10.7194992,1.33029071 C10.2456995,0.508571353 9.36930692,0.00225498002 8.42077707,0.00225498002 C7.47224723,0.00225498002 6.59585467,0.508571353 6.12205497,1.33029071 L0.361044709,11.3096755 C-0.109390888,12.1303357 -0.107370599,13.1393777 0.36634744,13.9581475 C0.840065479,14.7769173 1.71383784,15.2815872 2.65977198,15.2827742 L14.1817649,15.2827742 C15.1282269,15.2827742 16.0029543,14.7783842 16.4769355,13.9591577 C16.9509167,13.1399312 16.9522702,12.1301698 16.480487,11.3096755 L16.480487,11.3096755 Z" id="形状结合" stroke="#6D6D6D" stroke-width="1.3"></path>
                <path d="M8.9854415,9.09316574 C9.12279426,8.95581298 9.19971881,8.76936766 9.19918412,8.57512228 L9.19918412,4.11550875 C9.19918412,3.85406877 9.05970194,3.61248826 8.83328828,3.48176826 C8.60687461,3.35104827 8.32792147,3.35104827 8.10150781,3.48176826 C7.87509415,3.61248826 7.73561759,3.85406877 7.73561759,4.11550875 L7.73561759,8.57512228 C7.73561759,8.97927346 8.06324686,9.30690835 8.46739804,9.30690835 C8.66164342,9.30744305 8.84808874,9.23051849 8.9854415,9.09316574 Z" id="路径" fill="#9D9D9D"></path>
                <path d="M7.38117927,11.0340859 C7.19920097,11.4734204 7.29979013,11.9791163 7.63604219,12.3153683 C7.97229424,12.6516204 8.47799011,12.7522095 8.91732459,12.5702312 C9.35665907,12.3882529 9.64311277,11.9595447 9.64311277,11.4840125 C9.64311277,11.1721935 9.51924318,10.8731459 9.2987539,10.6526566 C9.07826462,10.4321673 8.77921698,10.3082977 8.46739804,10.3082977 C7.99186583,10.3082977 7.56315757,10.5947514 7.38117927,11.0340859 Z" id="路径" fill="#9D9D9D"></path>
            </g>
        </g>
    </g>
</svg>