<?xml version="1.0" encoding="UTF-8"?>
<svg width="18px" height="18px" viewBox="0 0 18 18" version="1.1" xmlns="http://www.w3.org/2000/svg" xmlns:xlink="http://www.w3.org/1999/xlink">
    <!-- Generator: Sketch 57 (83077) - https://sketch.com -->
    <title>cha-2</title>
    <desc>Created with Sketch.</desc>
    <g id="页面-1" stroke="none" stroke-width="1" fill="none" fill-rule="evenodd">
        <g id="3备份-7" transform="translate(-585.000000, -170.000000)" fill="#FFFFFF" fill-rule="nonzero">
            <g id="编组-3" transform="translate(183.000000, 58.000000)">
                <g id="cha-2" transform="translate(402.000000, 112.000000)">
                    <path d="M0.391895721,15.6700448 C-0.112929543,16.1711581 -0.112929543,16.9931078 0.391835372,17.494241 C0.896640519,17.9953344 1.72481949,17.9955141 2.22972522,17.4943608 L9.00540764,10.7684197 L15.7810901,17.4943409 C16.2859153,17.9954542 17.1139535,17.9954542 17.6187989,17.4944008 C18.123604,16.9933074 18.1237448,16.171218 17.6188994,15.6700448 L10.8431768,8.9441636 L17.6188994,2.21828241 C18.1237448,1.71710919 18.123604,0.895019769 17.6187989,0.393906455 C17.1139535,-0.107146953 16.2859153,-0.107146953 15.7810901,0.393966361 L9.00542776,7.11992743 L2.22974534,0.393986329 C1.72483961,-0.107206859 0.896640519,-0.107007172 0.391855488,0.394086173 C-0.112909426,0.895199486 -0.112909426,1.7171691 0.391915838,2.21828241 L7.16765861,8.9441636 L0.391895721,15.6700448 Z" id="路径"></path>
                </g>
            </g>
        </g>
    </g>
</svg>