<?xml version="1.0" encoding="UTF-8"?>
<svg width="45px" height="45px" viewBox="0 0 45 45" version="1.1" xmlns="http://www.w3.org/2000/svg"
     xmlns:xlink="http://www.w3.org/1999/xlink">
    <!-- Generator: Sketch 57 (83077) - https://sketch.com -->
    <title>编组 5</title>
    <desc>Created with Sketch.</desc>
    <g id="页面-1" stroke="none" stroke-width="1" fill="none" fill-rule="evenodd">
        <g id="首页05备份" transform="translate(-477.000000, -23.000000)">
            <g id="编组-5" transform="translate(477.000000, 23.000000)">
                <circle id="Oval" fill="#764EFE" cx="22.5" cy="22.5" r="22.5"></circle>
                <g id="houtaiguanli" transform="translate(13.000000, 12.000000)" fill="#FFFFFF" fill-rule="nonzero">
                    <path d="M17.1428571,18.5714286 L2.85714286,18.5714286 C2.46428571,18.5714286 2.14285714,18.8928571 2.14285714,19.2857143 C2.14285714,19.6785714 2.46428571,20 2.85714286,20 L17.1428571,20 C17.5357143,20 17.8571429,19.6785714 17.8571429,19.2857143 C17.8571429,18.8928571 17.5357143,18.5714286 17.1428571,18.5714286 Z M17.1428571,0 L2.85714286,0 C1.27857143,0 0,1.27857143 0,2.85714286 L0,14.2857143 C0,15.8642857 1.27857143,17.1428571 2.85714286,17.1428571 L17.1428571,17.1428571 C18.7214286,17.1428571 20,15.8642857 20,14.2857143 L20,2.85714286 C20,1.27857143 18.7214286,0 17.1428571,0 Z M18.5714286,14.2857143 C18.5714286,15.0714286 17.9285714,15.7142857 17.1428571,15.7142857 L2.85714286,15.7142857 C2.07142857,15.7142857 1.42857143,15.0714286 1.42857143,14.2857143 L1.42857143,2.85714286 C1.42857143,2.07142857 2.07142857,1.42857143 2.85714286,1.42857143 L17.1428571,1.42857143 C17.9285714,1.42857143 18.5714286,2.07142857 18.5714286,2.85714286 L18.5714286,14.2857143 Z"
                          id="形状"></path>
                    <path d="M15.5714286,7.14285714 L15.3571429,7.14285714 C14.7642857,7.13571429 14.2071429,6.82857143 13.8928571,6.32142857 C13.6071429,5.79285714 13.6142857,5.15714286 13.9285714,4.64285714 L14,4.5 L13.8571429,4.35714286 C13.2428571,3.78571429 12.5142857,3.35714286 11.7142857,3.10714286 L11.5357143,3.10714286 L11.4285714,3.21428571 C11.0214286,4 10.05,4.31428571 9.26428571,3.90714286 C8.96428571,3.75714286 8.72857143,3.51428571 8.57142857,3.21428571 L8.46428571,3.07142857 L8.28571429,3.07142857 C7.48571429,3.32142857 6.75714286,3.75 6.14285714,4.32142857 L6,4.46428571 L6.07142857,4.60714286 C6.38571429,5.12142857 6.39285714,5.75714286 6.10714286,6.28571429 C5.8,6.80714286 5.24285714,7.12857143 4.64285714,7.14285714 L4.46428571,7.14285714 L4.46428571,7.32142857 C4.35,7.72857143 4.29285714,8.15 4.28571429,8.57142857 C4.27857143,8.99285714 4.32857143,9.41428571 4.42857143,9.82142857 L4.42857143,10 L4.64285714,10 C5.23571429,10.0071429 5.79285714,10.3142857 6.10714286,10.8214286 C6.39285714,11.35 6.38571429,11.9857143 6.07142857,12.5 L6,12.6428571 L6.14285714,12.7857143 C6.75714286,13.3571429 7.48571429,13.7857143 8.28571429,14.0357143 L8.46428571,14.0357143 L8.57142857,13.9285714 C8.97857143,13.1428571 9.95,12.8285714 10.7357143,13.2357143 C11.0357143,13.3857143 11.2714286,13.6285714 11.4285714,13.9285714 L11.5357143,14.0714286 L11.7142857,14.0714286 C12.5142857,13.8214286 13.2428571,13.3928571 13.8571429,12.8214286 L14,12.6785714 L13.9285714,12.5 C13.6142857,11.9857143 13.6071429,11.35 13.8928571,10.8214286 C14.2071429,10.3142857 14.7642857,10.0071429 15.3571429,10 L15.5357143,10 L15.5357143,9.82142857 C15.65,9.41428571 15.7071429,8.99285714 15.7142857,8.57142857 C15.7214286,8.15 15.6714286,7.72857143 15.5714286,7.32142857 L15.5714286,7.14285714 L15.5714286,7.14285714 Z M10,10.1785714 C9.11428571,10.1785714 8.39285714,9.45714286 8.39285714,8.57142857 C8.39285714,7.68571429 9.11428571,6.96428571 10,6.96428571 C10.8857143,6.96428571 11.6071429,7.68571429 11.6071429,8.57142857 C11.6071429,9.45714286 10.8857143,10.1785714 10,10.1785714 Z"
                          id="形状"></path>
                </g>
            </g>
        </g>
    </g>
</svg>
