<?xml version="1.0" encoding="UTF-8"?>
<svg width="19px" height="16px" viewBox="0 0 19 16" version="1.1" xmlns="http://www.w3.org/2000/svg" xmlns:xlink="http://www.w3.org/1999/xlink">
    <!-- Generator: Sketch 57 (83077) - https://sketch.com -->
    <title>ziranzaihai-2备份</title>
    <desc>Created with Sketch.</desc>
    <g id="页面-1" stroke="none" stroke-width="1" fill="none" fill-rule="evenodd">
        <g id="首页05备份" transform="translate(-74.000000, -550.000000)" fill="#858585" fill-rule="nonzero">
            <g id="ziranzaihai-2备份" transform="translate(74.000000, 550.000000)">
                <path d="M14.1633065,11.5362903 C13.9737903,11.5362903 13.8205645,11.3830645 13.8205645,11.1935484 C13.8205645,11.0040323 13.9737903,10.8508065 14.1633065,10.8508065 C15.9516129,10.8508065 17.4072581,9.64112903 17.4072581,8.15524194 C17.4072581,6.70766129 16.046371,5.52620968 14.3084677,5.46370968 C14.203629,5.45967742 14.1068548,5.40927419 14.0443548,5.32459677 C13.9818548,5.23991935 13.9616935,5.13306452 13.9899194,5.03225806 C14.0564516,4.78629032 14.0907258,4.52217742 14.0907258,4.25 C14.0907258,2.28629032 12.1754032,0.6875 9.82056452,0.6875 C7.99193548,0.6875 6.36491935,1.65927419 5.77620968,3.10685484 C5.72177419,3.24193548 5.58870968,3.3266129 5.44354839,3.32056452 C5.36693548,3.31653226 5.29032258,3.31653226 5.20967742,3.31653226 C2.72177419,3.31653226 0.699596774,5.00604839 0.699596774,7.08467742 C0.699596774,9.16330645 2.72379032,10.8528226 5.20967742,10.8528226 C5.39919355,10.8528226 5.55241935,11.0060484 5.55241935,11.1955645 C5.55241935,11.3850806 5.39919355,11.5383065 5.20967742,11.5383065 C3.83266129,11.5383065 2.53629032,11.0806452 1.55846774,10.2520161 C0.5625,9.40927419 0.0141129032,8.28427419 0.0141129032,7.08467742 C0.0141129032,5.88508065 0.5625,4.76008065 1.55645161,3.91733871 C2.53427419,3.08870968 3.83266129,2.63104839 5.20967742,2.63104839 L5.23991935,2.63104839 C5.59274194,1.89314516 6.17540323,1.26209677 6.9375,0.794354839 C7.78225806,0.276209677 8.77822581,0.00201612903 9.82258065,0.00201612903 C11.1350806,0.00201612903 12.3729839,0.4375 13.3044355,1.22782258 C14.2540323,2.03225806 14.7762097,3.10483871 14.7762097,4.25201613 C14.7762097,4.44354839 14.7620968,4.63104839 14.733871,4.81451613 C15.5846774,4.92137097 16.3689516,5.26209677 16.9758065,5.7983871 C17.6955645,6.43346774 18.0907258,7.27217742 18.0907258,8.15927419 C18.0907258,9.07258065 17.6754032,9.92943548 16.9193548,10.5685484 C16.1814516,11.1915323 15.2016129,11.5362903 14.1633065,11.5362903 L14.1633065,11.5362903 Z" id="路径"></path>
                <path d="M12.1733871,9.50403226 C12.2096774,9.45766129 12.1754032,9.3891129 12.1169355,9.3891129 L10.233871,9.3891129 C10.0100806,9.38508065 9.96572581,9.3266129 10.0625,9.12903226 L11.1532258,6.55846774 C11.1733871,6.51209677 11.1391129,6.45967742 11.0866935,6.45967742 L8.46572581,6.45967742 C8.43548387,6.45967742 8.40725806,6.47983871 8.39717742,6.50806452 L6.87701613,10.9475806 C6.8608871,10.9939516 6.89516129,11.0423387 6.94556452,11.0423387 L9.33870968,11.0423387 C9.34879032,11.0423387 9.35483871,11.0504032 9.35282258,11.0604839 L8.88508065,13.6391129 C8.87096774,13.7137097 8.96774194,13.7560484 9.01209677,13.6955645 L12.1733871,9.50403226 L12.1733871,9.50403226 Z M12.6552419,12.6774194 L12.5443548,11.4032258 C12.5403226,11.3629032 12.4879032,11.3467742 12.4637097,11.3790323 L11.6572581,12.3709677 C11.5544355,12.4556452 11.4798387,12.5766129 11.4495968,12.7197581 C11.3870968,13.016129 11.5524194,13.3185484 11.8346774,13.4254032 C12.1733871,13.5564516 12.546371,13.3689516 12.6532258,13.0282258 C12.6875,12.9092742 12.6875,12.7883065 12.6552419,12.6774194 L12.6552419,12.6774194 Z M7.62701613,13.7237903 L7.51814516,12.4858871 C7.5141129,12.4455645 7.46370968,12.4294355 7.43951613,12.4616935 L6.65725806,13.4274194 C6.55846774,13.5120968 6.48387097,13.6270161 6.45564516,13.766129 C6.39516129,14.0544355 6.55443548,14.3467742 6.82862903,14.4516129 C7.15927419,14.578629 7.52217742,14.3971774 7.625,14.0665323 C7.65927419,13.9516129 7.65927419,13.8326613 7.62701613,13.7237903 L7.62701613,13.7237903 Z M10.5806452,15.2459677 L10.483871,14.1491935 C10.4798387,14.1129032 10.4354839,14.0987903 10.4133065,14.1270161 L9.71975806,14.9818548 C9.63104839,15.0564516 9.56653226,15.1572581 9.54032258,15.2822581 C9.4858871,15.5383065 9.62903226,15.796371 9.87096774,15.8891129 C10.1633065,16.0020161 10.4858871,15.8407258 10.5766129,15.546371 C10.608871,15.4475806 10.608871,15.3427419 10.5806452,15.2459677 L10.5806452,15.2459677 Z" id="形状"></path>
            </g>
        </g>
    </g>
</svg>