<?xml version="1.0" encoding="UTF-8"?>
<svg width="45px" height="45px" viewBox="0 0 45 45" version="1.1" xmlns="http://www.w3.org/2000/svg"
     xmlns:xlink="http://www.w3.org/1999/xlink">
    <!-- Generator: Sketch 57 (83077) - https://sketch.com -->
    <title>Group 7</title>
    <desc>Created with Sketch.</desc>
    <g id="页面-1" stroke="none" stroke-width="1" fill="none" fill-rule="evenodd">
        <g id="首页05备份" transform="translate(-278.000000, -23.000000)">
            <g id="Group-7" transform="translate(278.000000, 23.000000)">
                <circle id="Oval-Copy-3" fill="#0ACD5E" cx="22.5" cy="22.5" r="22.5"></circle>
                <g id="dianhua-2" transform="translate(13.000000, 11.000000)" fill="#FFFFFF" fill-rule="nonzero"
                   stroke="#FFFFFF">
                    <path d="M14.1644613,15.5569556 C13.5757297,14.9869609 12.4229203,14.0323676 11.3342106,14.0313815 C10.9693351,14.0313815 10.6340441,14.1359134 10.3579221,14.3361019 L9.66268627,14.8390384 C8.57496275,14.6072931 7.45962702,13.6596029 6.66676237,12.2849097 C5.8719254,10.9102165 5.60862334,9.47142357 5.95081741,8.41427068 L6.73283441,8.06221512 C7.72983212,7.61351685 8.05427549,6.3246187 7.64798168,4.4302244 C7.32057986,2.9056364 6.20820258,0.0231197361 4.33451745,0.0231197361 C4.15405199,0.0231197361 3.97161422,0.0527042344 3.79903795,0.107928651 L2.47365226,0.53690392 C1.33731736,0.905900807 0.485720209,1.85533943 0.241994646,3.02496055 C-0.4680334,6.44887359 0.422460103,10.6617067 2.68764682,14.5826394 C4.95184738,18.5035721 8.15782126,21.381158 11.4762162,22.4747984 C12.6106852,22.8505633 13.8595686,22.5876801 14.7462899,21.7864656 L15.7797752,20.8545538 C16.146623,20.5232074 16.6811163,19.7569688 16.1347892,18.3349404 C15.8044289,17.4769898 15.0500241,16.4119478 14.1644613,15.5569556 L14.1644613,15.5569556 Z M15.0273427,20.0192847 L13.9938574,20.9521827 C13.4066748,21.482101 12.5802314,21.6560495 11.829258,21.407784 C8.76627585,20.3979663 5.78810264,17.7057766 3.65999079,14.0205338 C1.53187894,10.335291 0.686748342,6.41041375 1.34253813,3.25276122 C1.50420741,2.47871925 2.06780226,1.85041257 2.81979093,1.60589061 L4.14517663,1.17592917 C4.20646139,1.15667915 4.27028153,1.14670725 4.33451745,1.14634467 C5.20923257,1.14634467 6.18650728,2.96579155 6.5513828,4.66690043 C6.81862946,5.91043566 6.7091668,6.84136133 6.27526078,7.0376052 L5.0859638,7.57111239 L5.0563793,7.63323983 C4.39565876,9.02272527 4.63923781,11.0206653 5.69441839,12.8470153 C6.74959897,14.6743513 8.35702359,15.8843575 9.8914731,16.0056539 L9.96050358,16.0105847 L11.0156842,15.2473045 C11.1093072,15.1826449 11.2215328,15.150432 11.3351968,15.1555926 C12.3795297,15.1555926 14.4829878,17.1643803 15.0865116,18.7363035 C15.2472541,19.1524588 15.3675644,19.7145643 15.0273427,20.0192847 L15.0273427,20.0192847 Z M18.847688,5.9311448 C17.6265779,3.50845755 15.4865933,1.67530115 12.9051477,0.840638149 C12.763665,0.793734076 12.6093108,0.805261549 12.4763645,0.872660533 C12.3434182,0.940059516 12.2428851,1.0577506 12.197092,1.19959677 C12.1018753,1.49419428 12.2628057,1.81032332 12.5570367,1.90666638 C14.8543879,2.64971783 16.7586404,4.28157907 17.8447734,6.43802594 C18.9445145,8.58812322 19.1377095,11.0890037 18.381239,13.3824947 C18.2851109,13.6779596 18.4467051,13.9954084 18.74217,14.0915366 C19.0376348,14.1876648 19.3550837,14.0260705 19.4512119,13.7306057 C20.2996695,11.1541773 20.0823544,8.34541493 18.847688,5.93015867 L18.847688,5.9311448 Z M11.8529256,4.06633504 C11.711319,4.01919432 11.5567315,4.03072861 11.4236886,4.09836183 C11.2906457,4.16599505 11.1902305,4.28409306 11.1448698,4.42627979 C11.0495677,4.72059106 11.2099923,5.03659229 11.5038284,5.1333494 C12.9440654,5.59981833 14.1374316,6.62376914 14.8172927,7.97642005 C15.5085839,9.33730715 15.6308665,10.8835905 15.1555422,12.3292865 C15.1009377,12.5006053 15.1311291,12.687685 15.2368538,12.8331295 C15.3425785,12.978574 15.5112136,13.065018 15.6910217,13.0659422 C15.9342159,13.066523 16.1498983,12.9098442 16.2245288,12.6783836 C16.7906288,10.9574294 16.6450474,9.08155971 15.8202073,7.46855278 C15.0045381,5.85069051 13.576229,4.62581688 11.8529256,4.06633504 L11.8529256,4.06633504 Z M10.449634,8.35904628 C11.6630612,8.75733458 12.3248878,10.0628978 11.9288591,11.2770643 C11.8741843,11.4482789 11.9043747,11.6352999 12.0101462,11.7806139 C12.1159176,11.9259279 12.2846071,12.0121379 12.4643386,12.0127323 C12.7075934,12.0128083 12.923295,11.8564048 12.998832,11.6251753 C13.5854049,9.82130146 12.6018672,7.88289414 10.7997173,7.29104577 C10.6579885,7.24324895 10.5030062,7.25433497 10.3695235,7.32181789 C10.2360408,7.38930081 10.1352273,7.50753382 10.0896892,7.65000439 C10.0433498,7.79175999 10.0552437,7.9461204 10.1227526,8.07910366 C10.1902615,8.21208692 10.3078509,8.31279102 10.449634,8.35904628 L10.449634,8.35904628 Z"
                          id="形状"></path>
                </g>
            </g>
        </g>
    </g>
</svg>
