<?xml version="1.0" encoding="UTF-8"?>
<svg width="17px" height="16px" viewBox="0 0 17 16" version="1.1" xmlns="http://www.w3.org/2000/svg" xmlns:xlink="http://www.w3.org/1999/xlink">
    <!-- Generator: Sketch 57 (83077) - https://sketch.com -->
    <title>gonggongweishenggongyirexian备份 2</title>
    <desc>Created with Sketch.</desc>
    <g id="页面-1" stroke="none" stroke-width="1" fill="none" fill-rule="evenodd">
        <g id="首页05备份" transform="translate(-75.000000, -644.000000)" fill="#9E9E9E" fill-rule="nonzero">
            <g id="gonggongweishenggongyirexian备份-2" transform="translate(75.000000, 644.000000)">
                <path d="M7.3046875,8.390625 C5.60546875,6.14453125 3,4.98828125 0.3828125,5.046875 C-0.384765625,7.54882812 0.021484375,10.3710938 1.72070312,12.6171875 C3.41992188,14.8632812 6.02539062,16.0195312 8.64257812,15.9609375 C9.40820313,13.4570313 9.00390625,10.6367188 7.3046875,8.390625 Z M7.66601563,14.6679688 C6.84570313,14.5761719 6.04101563,14.3457031 5.30078125,13.9863281 C4.27929687,13.4902344 3.41015625,12.7753906 2.71875,11.8613281 C2.00976562,10.9257813 1.5546875,9.86914063 1.36132812,8.72070312 C1.23046875,7.93554687 1.23046875,7.12695312 1.36132812,6.33789062 C2.18164062,6.4296875 2.98632812,6.66015625 3.7265625,7.01953125 C4.74804688,7.515625 5.6171875,8.23046875 6.30859375,9.14453125 C7.01757813,10.0800781 7.47265625,11.1367188 7.66601562,12.2851562 C7.796875,13.0703125 7.796875,13.8808594 7.66601562,14.6679688 L7.66601563,14.6679688 Z" id="形状"></path>
                <path d="M8.1171875,15.9589844 C10.7324219,16.0175781 13.3378906,14.8613281 15.0390625,12.6152344 C16.7382813,10.3691406 17.1425781,7.546875 16.3769531,5.04492188 C13.7617188,4.98632813 11.15625,6.14257813 9.45507812,8.38867188 C7.75390625,10.6367188 7.34960938,13.4570312 8.1171875,15.9589844 Z M9.09375,12.2851562 C9.28710938,11.1367188 9.7421875,10.0800781 10.4511719,9.14453125 C11.1425781,8.23046875 12.0117188,7.515625 13.0332031,7.01953125 C13.7714844,6.66015625 14.578125,6.4296875 15.3984375,6.33789063 C15.5292969,7.125 15.53125,7.93554688 15.3984375,8.72070312 C15.2050781,9.86914062 14.75,10.9257812 14.0410156,11.8613281 C13.3496094,12.7753906 12.4804688,13.4902344 11.4589844,13.9863281 C10.71875,14.3457031 9.9140625,14.5761719 9.09375,14.6679687 C8.96289062,13.8808594 8.9609375,13.0703125 9.09375,12.2851562 L9.09375,12.2851562 Z M5.09375,2.6875 L11.8085938,2.6875 L11.8085938,4.0546875 L5.09375,4.0546875 L5.09375,2.6875 Z" id="形状"></path>
                <polygon id="路径" points="9.13417969 0.0139453125 9.13417969 6.72878906 7.76699219 6.72878906 7.76699219 0.0139453125"></polygon>
            </g>
        </g>
    </g>
</svg>