<?xml version="1.0" encoding="UTF-8"?>
<svg width="21px" height="21px" viewBox="0 0 21 21" version="1.1" xmlns="http://www.w3.org/2000/svg"
     xmlns:xlink="http://www.w3.org/1999/xlink">
  <!-- Generator: Sketch 57 (83077) - https://sketch.com -->
  <title>soushuo</title>
  <desc>Created with Sketch.</desc>
  <g id="页面-1" stroke="none" stroke-width="1" fill="none" fill-rule="evenodd">
    <g id="3备份-7" transform="translate(-586.000000, -168.000000)" fill="#FFFFFF" fill-rule="nonzero">
      <g id="编组-3" transform="translate(183.000000, 58.000000)">
        <g id="编组-2" transform="translate(50.000000, 101.000000)">
          <g id="soushuo" transform="translate(353.000000, 9.000000)">
            <path
              d="M4.57708036,4.56553472 C3.02693213,6.11436576 2.34482246,8.33058461 2.75579464,10.4830109 C3.1496994,8.69524901 4.07579464,6.94834425 5.51836607,5.5047252 C6.96198512,4.06058234 8.70888988,3.13501091 10.4966518,2.74110615 C8.41712798,2.34929663 6.1856994,2.95639187 4.57708036,4.56553472 Z"
              id="路径"></path>
            <path
              d="M20.2656994,16.8284395 L17.7755089,14.338249 C17.2752797,13.8388001 16.5813257,13.5836165 15.8766994,13.6400109 C18.2186518,10.2525347 17.8802708,5.57020139 14.8641756,2.55358234 C11.4688423,-0.842798611 5.96255655,-0.842798611 2.5661756,2.55358234 C-0.829157738,5.94996329 -0.829157738,11.4567728 2.5661756,14.8531538 C5.58227083,17.8697728 10.2609375,18.2055347 13.6505089,15.8635823 C13.598128,16.5445347 13.831747,17.2453919 14.348747,17.7623919 L16.8389375,20.2531062 C17.7817946,21.1938681 19.3223185,21.1938681 20.2630804,20.2531062 C21.2085565,19.3123442 21.2085565,17.7712966 20.2656994,16.8284395 L20.2656994,16.8284395 Z M13.8542708,13.84063 C11.0167946,16.6781062 6.41879464,16.6781062 3.58236607,13.84063 C0.744889881,11.0031538 0.744889881,6.40410615 3.58236607,3.56662996 C6.41879464,0.72915377 11.0167946,0.72915377 13.8542708,3.56662996 C16.6912232,6.40201091 16.6912232,11.0031538 13.8542708,13.84063 Z"
              id="形状"></path>
          </g>
        </g>
      </g>
    </g>
  </g>
</svg>
