<?xml version="1.0" encoding="UTF-8"?>
<svg width="16px" height="16px" viewBox="0 0 16 16" version="1.1" xmlns="http://www.w3.org/2000/svg" xmlns:xlink="http://www.w3.org/1999/xlink">
    <!-- Generator: Sketch 57 (83077) - https://sketch.com -->
    <title>shehui备份 2</title>
    <desc>Created with Sketch.</desc>
    <g id="页面-1" stroke="none" stroke-width="1" fill="none" fill-rule="evenodd">
        <g id="首页05备份" transform="translate(-104.000000, -613.000000)" fill="#A2A2A2" fill-rule="nonzero">
            <g id="shehui备份-2" transform="translate(104.000000, 613.000000)">
                <path d="M7.56807487,3.67229055 C9.71966132,3.67553476 11.4603387,5.41694296 11.4639572,7.56999109 C11.4617825,8.74758467 10.9960784,9.79870766 10.3760963,10.6868895 C11.3093226,10.1955704 12.4865775,9.16501783 12.4876649,7.56999109 C12.4865775,4.85246881 10.2838146,2.65040107 7.56809269,2.65002674 L7.55329768,2.65002674 C4.83684492,2.65040107 2.6344385,4.85246881 2.63370766,7.56999109 C2.6344385,9.16501783 3.8113369,10.1955882 4.74531194,10.6868895 C4.12493761,9.79870766 3.65887701,8.74758467 3.65707665,7.56999109 C3.66067736,5.41696078 5.40171123,3.67553476 7.55329768,3.67229055 L7.56807487,3.67229055 Z M7.55402852,0.0157664885 C3.38094474,0.0157664885 0.00126559726,3.39728164 0.000178253175,7.56817291 C0.000178253175,8.68704991 0.244206774,9.75038324 0.680730838,10.7056061 C1.55664884,12.6203832 3.20900178,13.7839661 5.23554367,14.3123975 L5.09818182,14.0279947 C3.55071301,13.2695633 2.29919786,11.7833779 1.60891266,10.2680481 C1.23368984,9.44581996 1.02568627,8.53168449 1.02354724,7.56819073 C1.02894831,3.96139929 3.9472549,1.04524955 7.55404635,1.03804813 C11.1597148,1.04524955 14.0773084,3.96139929 14.083066,7.56819073 C14.0787701,10.2565152 12.4559537,12.8892959 10.136738,14.0139483 L10.018877,14.3235918 C12.9793583,13.4141266 15.1064171,10.8757308 15.1067736,7.56817291 C15.1060606,3.39726381 11.7252763,0.0157664885 7.55402852,0.0157664885 L7.55402852,0.0157664885 Z" id="形状"></path>
                <path d="M9.74272727,9.86503565 C9.95935829,12.533877 8.48654189,15.8151604 8.48654189,15.8151604 C8.48654189,15.8151604 8.11270945,15.9935918 7.55832442,15.9935918 C7.00502674,15.9935918 6.62149733,15.8151604 6.62149733,15.8151604 C6.62149733,15.8151604 5.14755793,12.533877 5.36420677,9.86503565 C5.36420677,9.86503565 5.71167558,8.74254011 7.57094474,8.74254011 C9.42987522,8.74254011 9.74272727,9.86503565 9.74272727,9.86503565 M9.21647059,6.52533868 C9.21647059,7.4438057 8.47176471,8.18851159 7.55329768,8.18851159 C6.6355615,8.18851159 5.89085561,7.4438057 5.89085561,6.52533868 C5.89085561,5.60726381 6.6355615,4.86252228 7.55329768,4.86252228 C8.47176471,4.86252228 9.21647059,5.60726381 9.21647059,6.52533868" id="形状"></path>
            </g>
        </g>
    </g>
</svg>