<?xml version="1.0" encoding="UTF-8"?>
<svg width="58px" height="60px" viewBox="0 0 58 60" version="1.1" xmlns="http://www.w3.org/2000/svg"
     xmlns:xlink="http://www.w3.org/1999/xlink">
  <!-- Generator: Sketch 57 (83077) - https://sketch.com -->
  <title>启动应急</title>
  <desc>Created with Sketch.</desc>
  <defs>
    <linearGradient x1="8.88702989%" y1="0%" x2="92.6222415%" y2="94.1323348%" id="linearGradient-1">
      <stop stop-color="#00FFF3" offset="0%"></stop>
      <stop stop-color="#0299FF" offset="100%"></stop>
      <stop stop-color="#51B7FF" offset="100%"></stop>
    </linearGradient>
  </defs>
  <g id="页面-1" stroke="none" stroke-width="1" fill="none" fill-rule="evenodd">
    <g id="3备份-7" transform="translate(-160.000000, -523.000000)" fill="url(#linearGradient-1)">
      <g id="编组-19备份-7" transform="translate(100.000000, 523.000000)">
        <g id="编组-2">
          <g id="启动应急" transform="translate(60.000000, 0.000000)">
            <path
              d="M44.4657058,47.8547208 L13.3067725,47.8547208 C12.8237807,47.8525597 12.4327736,47.4615526 12.4306125,46.9785608 L12.4306125,30.8445875 C12.4587877,21.9899709 19.6310292,14.8194925 28.4856525,14.7934942 L29.2789325,14.7934942 C38.1335558,14.8194925 45.3057973,21.9899709 45.3340084,30.8445875 L45.3340084,46.9746142 C45.3360784,47.2062574 45.2455311,47.4291377 45.0824707,47.5936804 C44.9194103,47.7582232 44.6973586,47.8507838 44.4657058,47.8507742 L44.4657058,47.8547208 Z M52.0551458,59.1421875 L6.19487919,59.1421875 C5.71253135,59.1400148 5.32266581,58.7483802 5.32266581,58.2660275 L5.32266581,52.4486408 C5.32266581,51.9671475 5.7173325,51.5764275 6.19882581,51.5764275 L52.0551458,51.5764275 C52.5366391,51.5764275 52.9313058,51.9710942 52.9313058,52.4486408 L52.9313058,58.2660275 C52.9313058,58.7475208 52.5366391,59.1421875 52.0551458,59.1421875 L52.0551458,59.1421875 Z M46.0996258,24.0050142 C45.6299603,22.2218231 46.6876047,20.393861 48.4676258,19.9123208 L52.9747192,18.7006942 C54.756716,18.2307565 56.5841322,19.2863229 57.0674125,21.0647475 C57.5373502,22.8467443 56.4817838,24.6741606 54.7033592,25.1574408 L50.1923192,26.3690675 C48.4103224,26.8390052 46.5829061,25.7834388 46.0996258,24.0050142 L46.0996258,24.0050142 Z M39.8678392,12.8912008 C38.568463,11.5829858 38.568463,9.47130924 39.8678392,8.16309419 L43.1751458,4.8557875 C44.4833609,3.55641129 46.5950374,3.55641129 47.9032525,4.8557875 C49.2017058,6.1581875 49.2017058,8.2893875 47.9032525,9.58389419 L44.5959458,12.8912008 C43.2877308,14.190577 41.1760542,14.190577 39.8678392,12.8912008 L39.8678392,12.8912008 Z M29.2118392,11.3598942 C27.3698855,11.3512375 25.8794399,9.85903014 25.8729592,8.0170675 L25.8729592,3.34816081 C25.8794543,1.5046657 27.3722907,0.0118292695 29.2157858,0.00533418593 C31.0577395,0.0139909085 32.548185,1.50619819 32.5546658,3.34816081 L32.5546658,8.0170675 C32.5481851,9.85903014 31.0577395,11.3512375 29.2157858,11.3598942 L29.2118392,11.3598942 Z M18.9623458,12.8872542 C17.6541308,14.1866304 15.5424542,14.1866304 14.2342392,12.8872542 L10.9269325,9.5799475 C9.62755629,8.27173244 9.62755629,6.16005587 10.9269325,4.85184081 C12.2351476,3.5524646 14.3468241,3.5524646 15.6550392,4.85184081 L18.9623458,8.1591475 C20.261722,9.46736256 20.261722,11.5790391 18.9623458,12.8872542 L18.9623458,12.8872542 Z M11.1400525,24.0050142 C10.6585568,25.7869937 8.82788547,26.8451852 7.0434125,26.3730142 L2.53631919,25.1534942 C0.756298061,24.671954 -0.30134636,22.8439919 0.168319186,21.0608008 C0.649814929,19.2788213 2.48048621,18.2206298 4.26495919,18.6928008 L8.77599919,19.9083742 C10.5480525,20.3819742 11.6136525,22.2211209 11.1400525,24.0010675 L11.1400525,24.0050142 Z M27.4318925,35.3122142 L27.4318925,43.5449608 L35.6725325,30.9472008 L31.1338658,30.9472008 L31.1338658,22.7105075 L22.8813858,35.3122142 L27.4318925,35.3122142 Z"
              id="形状"></path>
          </g>
        </g>
      </g>
    </g>
  </g>
</svg>
