<?xml version="1.0" encoding="UTF-8"?>
<svg width="57px" height="52px" viewBox="0 0 57 52" version="1.1" xmlns="http://www.w3.org/2000/svg"
     xmlns:xlink="http://www.w3.org/1999/xlink">
  <!-- Generator: Sketch 57 (83077) - https://sketch.com -->
  <title>应急救援</title>
  <desc>Created with Sketch.</desc>
  <defs>
    <linearGradient x1="5.93590197%" y1="7.9729661%" x2="95.6817063%" y2="87.0950226%" id="linearGradient-1">
      <stop stop-color="#00FFF3" offset="0%"></stop>
      <stop stop-color="#0299FF" offset="100%"></stop>
      <stop stop-color="#51B7FF" offset="100%"></stop>
    </linearGradient>
  </defs>
  <g id="页面-1" stroke="none" stroke-width="1" fill="none" fill-rule="evenodd">
    <g id="3备份-7" transform="translate(-152.000000, -789.000000)" fill="url(#linearGradient-1)">
      <g id="编组-8" transform="translate(91.000000, 746.000000)">
        <g id="应急救援" transform="translate(61.000000, 43.000000)">
          <path
            d="M49.9967532,9.1683836 L42.2145269,9.1683836 L42.2145269,6.20649351 C42.2145269,2.77871233 39.4357473,0 36.0080334,0 L20.1917787,0 C16.7640649,0 13.9852852,2.77871233 13.9852852,6.20649351 L13.9852852,9.16831625 L6.20649351,9.16831625 C2.77871233,9.16831625 0,11.9470959 0,15.3748098 L0,45.3212083 C0,48.7489221 2.77871233,51.5277018 6.20649351,51.5277018 L49.9967532,51.5277018 C53.4245344,51.5277018 56.2032468,48.7489221 56.2032468,45.3212083 L56.2032468,15.3748771 C56.2032468,11.9470959 53.4245344,9.1683836 49.9967532,9.1683836 Z M18.1229476,6.20649351 C18.1229476,5.06392223 19.0492075,4.13766234 20.1917787,4.13766234 L36.0080334,4.13766234 C37.1506047,4.13766234 38.0768646,5.06392223 38.0768646,6.20649351 L38.0768646,9.16831625 L18.1229476,9.16831625 L18.1229476,6.20649351 Z M4.13766234,15.3748098 C4.13766234,14.2322385 5.06392223,13.3059786 6.20649351,13.3059786 L49.9967532,13.3059786 C51.1393245,13.3059786 52.0655844,14.2322385 52.0655844,15.3748098 L52.0655844,17.4436409 L4.13766234,17.4436409 L4.13766234,15.3748098 L4.13766234,15.3748098 Z M34.6046359,35.8976554 L30.1704545,35.8976554 L30.1704545,40.3318367 C30.1704545,41.474408 29.2441947,42.4006679 28.1016234,42.4006679 C26.9590521,42.4006679 26.0327922,41.474408 26.0327922,40.3318367 L26.0327922,35.8976554 L21.5986109,35.8976554 C20.4560396,35.8976554 19.5297797,34.9713955 19.5297797,33.8288242 C19.5297797,32.6862529 20.4560396,31.759993 21.5986109,31.759993 L26.0327922,31.759993 L26.0327922,27.3223771 C26.0327922,26.1797385 26.9590521,25.2535459 28.1016234,25.2535459 C29.2441947,25.2535459 30.1704545,26.1797385 30.1704545,27.3223771 L30.1704545,31.759993 L34.6046359,31.759993 C35.7472072,31.759993 36.6734671,32.6862529 36.6734671,33.8288242 C36.6734671,34.9713955 35.7472072,35.8976554 34.6046359,35.8976554 Z"
            id="形状"></path>
        </g>
      </g>
    </g>
  </g>
</svg>
