<?xml version="1.0" encoding="UTF-8"?>
<svg width="61px" height="59px" viewBox="0 0 61 59" version="1.1" xmlns="http://www.w3.org/2000/svg"
     xmlns:xlink="http://www.w3.org/1999/xlink">
  <!-- Generator: Sketch 57 (83077) - https://sketch.com -->
  <title>应急结束</title>
  <desc>Created with Sketch.</desc>
  <defs>
    <linearGradient x1="5.93590197%" y1="45.2729221%" x2="95.6817063%" y2="54.1723397%" id="linearGradient-1">
      <stop stop-color="#00FFF3" offset="0%"></stop>
      <stop stop-color="#0299FF" offset="100%"></stop>
      <stop stop-color="#51B7FF" offset="100%"></stop>
    </linearGradient>
    <linearGradient x1="7.21174101%" y1="0%" x2="94.3590308%" y2="94.1323348%" id="linearGradient-2">
      <stop stop-color="#00FFF3" offset="0%"></stop>
      <stop stop-color="#0299FF" offset="100%"></stop>
      <stop stop-color="#51B7FF" offset="100%"></stop>
    </linearGradient>
  </defs>
  <g id="页面-1" stroke="none" stroke-width="1" fill="none" fill-rule="evenodd" opacity="0.904110863">
    <g id="3备份-7" transform="translate(-158.000000, -1051.000000)">
      <g id="编组-19备份-7" transform="translate(100.000000, 523.000000)">
        <g id="应急结束" transform="translate(58.000000, 528.000000)">
          <path
            d="M58.1485,18.27925 C55.1905,11.20725 49.6145,5.56325 42.5765,2.46925 C44.4805,0.97325 46.8265,0.05525 49.4445,0.05525 C55.5645,0.05525 60.5285,5.08725 60.5285,11.30925 C60.5285,13.96125 59.6105,16.37525 58.1485,18.27925 Z M2.4905,18.65325 C0.9265,16.61325 0.0425,14.13125 0.0425,11.54725 C0.0425,5.18925 5.1085,0.05525 11.3645,0.05525 C14.0165,0.05525 16.4305,0.97325 18.3685,2.53725 C11.2285,5.66525 5.5505,11.44525 2.4905,18.65325 Z"
            id="形状" fill="url(#linearGradient-1)"></path>
          <path
            d="M57.6728189,30.72325 C57.6728189,15.35525 45.3985,2.91125 30.2685,2.91125 C15.1385,2.91125 2.8645,15.35525 2.8645,30.72325 C2.8645,37.79525 5.5165,44.59525 10.3445,49.76325 L6.5365,53.60525 C5.4485,54.72725 5.4825,56.52925 6.5705,57.65125 C7.6585,58.73925 9.4265,58.77325 10.5485,57.68525 L14.6285,53.53725 C24.0125,60.20125 36.5585,60.20125 45.9085,53.50325 L50.0225,57.68525 C50.8045,58.50125 52.0285,58.73925 53.0825,58.29725 C54.1365,57.85525 54.8165,56.80125 54.8165,55.67925 C54.8165,54.93125 54.5105,54.18325 54.0005,53.67325 L50.1925,49.79725 C55.0205,44.62925 57.7065,37.82925 57.6728189,30.72325 Z M27.6165,39.46125 C27.6165,41.36525 26.0865,42.92925 24.1825,42.92925 C22.3125,42.92925 20.7485,41.36525 20.7485,39.46125 L20.7485,23.75325 C20.7485,21.84925 22.2785,20.28525 24.1825,20.28525 C26.0525,20.28525 27.6165,21.84925 27.6165,23.75325 L27.6165,39.46125 Z M39.8225,39.46125 C39.8225,41.36525 38.2925,42.92925 36.3885,42.92925 C34.4845,42.92925 32.9545,41.36525 32.9545,39.46125 L32.9545,23.75325 C32.9545,21.84925 34.4845,20.28525 36.3885,20.28525 C38.2925,20.28525 39.8225,21.84925 39.8225,23.75325 L39.8225,39.46125 Z"
            id="形状" fill="url(#linearGradient-2)"></path>
        </g>
      </g>
    </g>
  </g>
</svg>
