<?xml version="1.0" encoding="UTF-8"?>
<svg width="56px" height="56px" viewBox="0 0 56 56" version="1.1" xmlns="http://www.w3.org/2000/svg"
     xmlns:xlink="http://www.w3.org/1999/xlink">
  <!-- Generator: Sketch 57 (83077) - https://sketch.com -->
  <title>指挥部</title>
  <desc>Created with Sketch.</desc>
  <defs>
    <linearGradient x1="5.93590197%" y1="0.00101686289%" x2="95.6817063%" y2="94.1314373%" id="linearGradient-1">
      <stop stop-color="#00FFF3" offset="0%"></stop>
      <stop stop-color="#0299FF" offset="100%"></stop>
      <stop stop-color="#51B7FF" offset="100%"></stop>
    </linearGradient>
  </defs>
  <g id="页面-1" stroke="none" stroke-width="1" fill="none" fill-rule="evenodd">
    <g id="3备份-7" transform="translate(-242.000000, -659.000000)" fill="url(#linearGradient-1)">
      <g id="编组-19备份-4" transform="translate(176.000000, 615.000000)">
        <g id="指挥部" transform="translate(66.000000, 44.000000)">
          <path
            d="M0,9.15802295 L9.14750836,55.3885277 L16.0074473,55.3885277 L11.667712,31.3884346 C11.667712,31.3884346 16.7690473,25.8301393 24.3905862,27.8518411 C25.8860916,28.375268 29.9571898,30.5797539 31.2505251,31.3884346 C31.2505251,31.3884346 36.0804538,34.4209873 40.3980335,30.1255633 C40.3980335,30.1255633 44.9731724,26.5889699 49.290752,20.2746135 C49.290752,20.2746135 52.8495011,15.7271691 54.3727011,13.4534469 C54.3727011,13.4534469 55.3890909,11.9357859 55.3890909,11.6837655 C55.3890909,11.6837655 39.1185455,16.6023168 25.8860916,5.09800258 C22.8950807,2.51410149 19.9511505,-2.09704032 13.7198778,1.07398513 L0,9.15802295 Z"
            id="路径"></path>
        </g>
      </g>
    </g>
  </g>
</svg>
